<?xml version="1.0" encoding="UTF-8"?>
<svg version="1.1" xmlns="http://www.w3.org/2000/svg" width="1024" height="1024">
<path d="M0 0 C337.92 0 675.84 0 1024 0 C1024 337.92 1024 675.84 1024 1024 C686.08 1024 348.16 1024 0 1024 C0 686.08 0 348.16 0 0 Z M221 288 C221 301.53 221 315.06 221 329 C207.47 329 193.94 329 180 329 C180 383.45 180 437.9 180 494 C193.53 494 207.06 494 221 494 C221 507.86 221 521.72 221 536 C276.11 536 331.22 536 388 536 C388 563.39 388 590.78 388 619 C347.08 619 306.16 619 264 619 C264 605.47 264 591.94 264 578 C236.28 578 208.56 578 180 578 C180 605.39 180 632.78 180 661 C193.53 661 207.06 661 221 661 C221 674.2 221 687.4 221 701 C289.64 701 358.28 701 429 701 C429 687.8 429 674.6 429 661 C442.53 661 456.06 661 470 661 C470 606.22 470 551.44 470 495 C456.47 495 442.94 495 429 495 C429 481.14 429 467.28 429 453 C374.55 453 320.1 453 264 453 C264 425.61 264 398.22 264 370 C304.92 370 345.84 370 388 370 C388 383.86 388 397.72 388 412 C415.06 412 442.12 412 470 412 C470 384.61 470 357.22 470 329 C456.47 329 442.94 329 429 329 C429 315.47 429 301.94 429 288 C360.36 288 291.72 288 221 288 Z M534 288 C534 424.29 534 560.58 534 701 C561.72 701 589.44 701 618 701 C618 654.14 618 607.28 618 559 C648.69 559 679.38 559 711 559 C711 572.86 711 586.72 711 601 C724.53 601 738.06 601 752 601 C752 634 752 667 752 701 C779.06 701 806.12 701 834 701 C834 668 834 635 834 601 C820.8 601 807.6 601 794 601 C794 573.61 794 546.22 794 518 C807.2 518 820.4 518 834 518 C834 455.63 834 393.26 834 329 C820.8 329 807.6 329 794 329 C794 315.47 794 301.94 794 288 C708.2 288 622.4 288 534 288 Z " fill="#FEFEFE" transform="translate(0,0)"/>
<path d="M0 0 C85.8 0 171.6 0 260 0 C260 13.53 260 27.06 260 41 C273.2 41 286.4 41 300 41 C300 103.37 300 165.74 300 230 C286.8 230 273.6 230 260 230 C260 257.39 260 284.78 260 313 C273.2 313 286.4 313 300 313 C300 346 300 379 300 413 C272.94 413 245.88 413 218 413 C218 380 218 347 218 313 C204.47 313 190.94 313 177 313 C177 299.14 177 285.28 177 271 C146.31 271 115.62 271 84 271 C84 317.86 84 364.72 84 413 C56.28 413 28.56 413 0 413 C0 276.71 0 140.42 0 0 Z M84 82 C84 116.98 84 151.96 84 188 C128.22 188 172.44 188 218 188 C218 153.02 218 118.04 218 82 C173.78 82 129.56 82 84 82 Z " fill="#000000" transform="translate(534,288)"/>
<path d="M0 0 C68.64 0 137.28 0 208 0 C208 13.53 208 27.06 208 41 C221.53 41 235.06 41 249 41 C249 68.39 249 95.78 249 124 C221.94 124 194.88 124 167 124 C167 110.14 167 96.28 167 82 C126.08 82 85.16 82 43 82 C43 109.39 43 136.78 43 165 C97.45 165 151.9 165 208 165 C208 178.86 208 192.72 208 207 C221.53 207 235.06 207 249 207 C249 261.78 249 316.56 249 373 C235.47 373 221.94 373 208 373 C208 386.2 208 399.4 208 413 C139.36 413 70.72 413 0 413 C0 399.8 0 386.6 0 373 C-13.53 373 -27.06 373 -41 373 C-41 345.61 -41 318.22 -41 290 C-13.28 290 14.44 290 43 290 C43 303.53 43 317.06 43 331 C83.92 331 124.84 331 167 331 C167 303.61 167 276.22 167 248 C111.89 248 56.78 248 0 248 C0 234.14 0 220.28 0 206 C-13.53 206 -27.06 206 -41 206 C-41 151.55 -41 97.1 -41 41 C-27.47 41 -13.94 41 0 41 C0 27.47 0 13.94 0 0 Z " fill="#000000" transform="translate(221,288)"/>
<path d="M0 0 C44.22 0 88.44 0 134 0 C134 34.98 134 69.96 134 106 C89.78 106 45.56 106 0 106 C0 71.02 0 36.04 0 0 Z " fill="#FEFEFE" transform="translate(618,370)"/>
</svg>
