<?xml version="1.0" encoding="UTF-8"?>
<svg version="1.1" xmlns="http://www.w3.org/2000/svg" width="1024" height="1024">
<path d="M0 0 C337.92 0 675.84 0 1024 0 C1024 337.92 1024 675.84 1024 1024 C686.08 1024 348.16 1024 0 1024 C0 686.08 0 348.16 0 0 Z " fill="#FEFEFE" transform="translate(0,0)"/>
<path d="M0 0 C85.8 0 171.6 0 260 0 C260 13.53 260 27.06 260 41 C273.2 41 286.4 41 300 41 C300 103.37 300 165.74 300 230 C286.8 230 273.6 230 260 230 C260 257.39 260 284.78 260 313 C273.2 313 286.4 313 300 313 C300 346 300 379 300 413 C272.94 413 245.88 413 218 413 C218 380 218 347 218 313 C204.47 313 190.94 313 177 313 C177 299.14 177 285.28 177 271 C146.31 271 115.62 271 84 271 C84 317.86 84 364.72 84 413 C56.28 413 28.56 413 0 413 C0 276.71 0 140.42 0 0 Z " fill="#000000" transform="translate(534,288)"/>
<path d="M0 0 C68.64 0 137.28 0 208 0 C208 13.53 208 27.06 208 41 C221.53 41 235.06 41 249 41 C249 68.39 249 95.78 249 124 C221.94 124 194.88 124 167 124 C167 110.14 167 96.28 167 82 C126.08 82 85.16 82 43 82 C43 109.39 43 136.78 43 165 C97.45 165 151.9 165 208 165 C208 178.86 208 192.72 208 207 C221.53 207 235.06 207 249 207 C249 261.78 249 316.56 249 373 C235.47 373 221.94 373 208 373 C208 386.2 208 399.4 208 413 C139.36 413 70.72 413 0 413 C0 399.8 0 386.6 0 373 C-13.53 373 -27.06 373 -41 373 C-41 345.61 -41 318.22 -41 290 C-13.28 290 14.44 290 43 290 C43 303.53 43 317.06 43 331 C83.92 331 124.84 331 167 331 C167 303.61 167 276.22 167 248 C111.89 248 56.78 248 0 248 C0 234.14 0 220.28 0 206 C-13.53 206 -27.06 206 -41 206 C-41 151.55 -41 97.1 -41 41 C-27.47 41 -13.94 41 0 41 C0 27.47 0 13.94 0 0 Z " fill="#000000" transform="translate(221,288)"/>
<path d="M0 0 C44.22 0 88.44 0 134 0 C134 34.98 134 69.96 134 106 C89.78 106 45.56 106 0 106 C0 71.02 0 36.04 0 0 Z " fill="#FEFEFE" transform="translate(618,370)"/>
</svg>
